<svg xmlns="http://www.w3.org/2000/svg" xmlns:xlink="http://www.w3.org/1999/xlink" width="54" zoomAndPan="magnify" viewBox="0 0 40.5 40.5" height="54" preserveAspectRatio="xMidYMid meet" version="1.0"><defs><filter x="0%" y="0%" width="100%" height="100%" id="ee6d22b2e9"><feColorMatrix values="0 0 0 0 1 0 0 0 0 1 0 0 0 0 1 0 0 0 1 0" color-interpolation-filters="sRGB"/></filter><clipPath id="b33388a27d"><path d="M 4 0 L 36 0 L 36 40.007812 L 4 40.007812 Z M 4 0 " clip-rule="nonzero"/></clipPath><mask id="8c77159931"><g filter="url(#ee6d22b2e9)"><rect x="-4.05" width="48.6" fill="#000000" y="-4.05" height="48.6" fill-opacity="0.59"/></g></mask><clipPath id="c08886f28d"><path d="M 9 25 L 30.660156 25 L 30.660156 37 L 9 37 Z M 9 25 " clip-rule="nonzero"/></clipPath><clipPath id="d9ad5652fc"><path d="M 1.027344 25 L 22 25 L 22 39.738281 L 1.027344 39.738281 Z M 1.027344 25 " clip-rule="nonzero"/></clipPath><clipPath id="59d4714c69"><path d="M 2 0 L 30 0 L 30 26 L 2 26 Z M 2 0 " clip-rule="nonzero"/></clipPath><clipPath id="a7397a27de"><rect x="0" width="32" y="0" height="41"/></clipPath></defs><g clip-path="url(#b33388a27d)"><g mask="url(#8c77159931)"><g transform="matrix(1, 0, 0, 1, 4, 0.000000000000000115)"><g clip-path="url(#a7397a27de)"><g clip-path="url(#c08886f28d)"><path fill="#2d167b" d="M 30.347656 25.0625 L 25.980469 25.0625 C 25.296875 25.0625 24.734375 25.621094 24.734375 26.308594 L 24.734375 26.621094 L 23.953125 26.621094 C 23.890625 26.621094 23.828125 26.621094 23.765625 26.589844 L 22.113281 25.746094 C 21.644531 25.496094 21.113281 25.375 20.554688 25.375 L 15.5625 25.375 C 14.625 25.375 13.753906 25.746094 13.160156 26.371094 L 9.667969 30.113281 C 9.511719 30.269531 9.449219 30.519531 9.511719 30.738281 C 9.542969 30.832031 10.195312 32.859375 13.566406 31.957031 C 13.878906 31.863281 14.160156 31.738281 14.378906 31.519531 L 16.1875 29.769531 L 17.808594 29.769531 L 21.582031 36.042969 C 21.707031 36.230469 21.894531 36.351562 22.113281 36.351562 L 24.921875 36.351562 C 25.140625 36.695312 25.542969 36.945312 25.980469 36.945312 L 30.347656 36.945312 C 30.691406 36.945312 30.972656 36.664062 30.972656 36.324219 C 30.972656 35.980469 30.972656 26.058594 30.972656 25.714844 C 30.972656 25.375 30.691406 25.0625 30.347656 25.0625 Z M 24.734375 35.074219 L 22.488281 35.074219 L 18.714844 28.804688 C 18.589844 28.617188 18.402344 28.492188 18.183594 28.492188 L 15.96875 28.492188 C 15.8125 28.492188 15.65625 28.554688 15.53125 28.679688 L 13.535156 30.582031 C 13.472656 30.644531 13.347656 30.707031 13.253906 30.738281 C 11.851562 31.113281 11.195312 30.832031 10.914062 30.613281 L 14.066406 27.246094 C 14.4375 26.871094 14.96875 26.621094 15.5625 26.621094 L 20.554688 26.621094 C 20.898438 26.621094 21.238281 26.714844 21.550781 26.839844 L 23.203125 27.679688 C 23.421875 27.804688 23.703125 27.867188 23.953125 27.867188 L 24.734375 27.867188 Z M 28.476562 34.417969 C 28.132812 34.417969 27.851562 34.140625 27.851562 33.796875 C 27.851562 33.453125 28.132812 33.171875 28.476562 33.171875 C 28.820312 33.171875 29.101562 33.453125 29.101562 33.796875 C 29.101562 34.140625 28.820312 34.417969 28.476562 34.417969 Z M 28.476562 34.417969 " fill-opacity="1" fill-rule="nonzero"/></g><g clip-path="url(#d9ad5652fc)"><path fill="#2d167b" d="M 20.554688 36.726562 C 20.335938 36.695312 18.058594 33.671875 18.058594 33.671875 C 17.871094 33.390625 17.464844 33.328125 17.183594 33.546875 C 16.902344 33.734375 16.839844 34.140625 17.058594 34.417969 C 17.058594 34.417969 18.835938 36.882812 18.835938 36.882812 C 19.023438 37.132812 18.835938 37.445312 18.589844 37.601562 C 18.246094 37.789062 17.746094 37.695312 17.558594 37.414062 L 15.8125 34.949219 C 15.625 34.667969 15.21875 34.605469 14.9375 34.792969 C 14.65625 34.980469 14.59375 35.386719 14.78125 35.667969 C 14.78125 35.667969 16.0625 37.476562 16.0625 37.476562 C 16.21875 37.757812 16.1875 38.007812 15.90625 38.164062 C 15.5625 38.351562 15.0625 38.257812 14.875 37.976562 L 13.128906 35.511719 C 12.941406 35.230469 12.535156 35.167969 12.253906 35.355469 C 11.976562 35.542969 11.914062 35.949219 12.101562 36.230469 C 12.101562 36.230469 13.128906 37.695312 13.128906 37.695312 C 13.316406 37.945312 13.222656 38.289062 12.941406 38.414062 C 12.597656 38.597656 12.101562 38.507812 11.914062 38.226562 L 9.417969 34.511719 C 9.199219 34.167969 8.792969 33.796875 7.949219 33.796875 L 7.265625 33.796875 L 7.265625 27.246094 L 10.632812 27.246094 L 11.820312 25.996094 L 7.234375 25.996094 C 7.109375 25.464844 6.609375 25.0625 6.015625 25.0625 L 1.648438 25.0625 C 1.304688 25.0625 1.027344 25.34375 1.027344 25.683594 C 1.027344 26.027344 1.027344 35.324219 1.027344 35.667969 C 1.027344 36.011719 1.304688 36.292969 1.648438 36.292969 L 6.015625 36.292969 C 6.703125 36.292969 7.265625 35.730469 7.265625 35.042969 L 7.265625 35.011719 L 8.011719 35.011719 C 8.324219 35.011719 8.386719 35.105469 8.417969 35.167969 C 8.417969 35.167969 10.914062 38.910156 10.914062 38.910156 C 11.476562 39.753906 12.691406 39.941406 13.535156 39.503906 C 13.785156 39.378906 13.972656 39.191406 14.128906 39.003906 C 14.5 39.316406 15 39.503906 15.5 39.503906 C 15.84375 39.503906 16.15625 39.441406 16.46875 39.253906 C 16.746094 39.097656 16.964844 38.910156 17.152344 38.660156 C 17.464844 38.847656 17.808594 38.941406 18.183594 38.941406 C 18.527344 38.941406 18.835938 38.878906 19.148438 38.691406 C 19.523438 38.507812 19.804688 38.226562 19.960938 37.882812 C 20.179688 37.976562 20.429688 38.007812 20.679688 38.007812 C 20.960938 38.007812 21.269531 37.945312 21.550781 37.820312 C 21.707031 37.757812 21.832031 37.664062 21.957031 37.570312 C 21.425781 37.539062 20.898438 37.226562 20.554688 36.726562 Z M 3.519531 28.804688 C 3.179688 28.804688 2.898438 28.523438 2.898438 28.179688 C 2.898438 27.835938 3.179688 27.558594 3.519531 27.558594 C 3.863281 27.558594 4.144531 27.835938 4.144531 28.179688 C 4.144531 28.523438 3.863281 28.804688 3.519531 28.804688 Z M 3.519531 28.804688 " fill-opacity="1" fill-rule="nonzero"/></g><g clip-path="url(#59d4714c69)"><path fill="#2d167b" d="M 7.949219 24.75 L 11.789062 24.75 C 12.132812 24.75 12.441406 24.875 12.660156 25.125 C 13.441406 24.5 14.46875 24.125 15.53125 24.125 L 20.523438 24.125 C 21.269531 24.125 21.988281 24.3125 22.644531 24.625 L 23.703125 25.15625 C 24.109375 24.34375 24.953125 23.78125 25.917969 23.78125 L 29.039062 23.78125 L 29.039062 1.664062 C 29.039062 0.636719 28.195312 -0.207031 27.167969 -0.207031 L 4.769531 -0.207031 C 3.738281 -0.207031 2.898438 0.636719 2.898438 1.664062 L 2.898438 23.8125 L 6.015625 23.8125 C 6.796875 23.8125 7.484375 24.1875 7.949219 24.75 Z M 11.007812 7.59375 C 11.007812 7.25 11.289062 6.96875 11.632812 6.96875 L 25.359375 6.96875 C 25.699219 6.96875 25.980469 7.25 25.980469 7.59375 L 25.980469 8.839844 C 25.980469 9.183594 25.699219 9.464844 25.359375 9.464844 L 11.632812 9.464844 C 11.289062 9.464844 11.007812 9.183594 11.007812 8.839844 Z M 11.007812 12.582031 C 11.007812 12.238281 11.289062 11.960938 11.632812 11.960938 L 25.359375 11.960938 C 25.699219 11.960938 25.980469 12.238281 25.980469 12.582031 L 25.980469 13.832031 C 25.980469 14.175781 25.699219 14.453125 25.359375 14.453125 L 11.632812 14.453125 C 11.289062 14.453125 11.007812 14.175781 11.007812 13.832031 Z M 11.007812 17.574219 C 11.007812 17.230469 11.289062 16.949219 11.632812 16.949219 L 25.359375 16.949219 C 25.699219 16.949219 25.980469 17.230469 25.980469 17.574219 L 25.980469 18.820312 C 25.980469 19.164062 25.699219 19.445312 25.359375 19.445312 L 11.632812 19.445312 C 11.289062 19.445312 11.007812 19.164062 11.007812 18.820312 Z M 5.550781 8.246094 C 5.796875 7.996094 6.171875 7.996094 6.421875 8.214844 L 6.859375 8.652344 L 8.105469 7.71875 C 8.386719 7.5 8.761719 7.5625 8.980469 7.839844 C 9.199219 8.121094 9.136719 8.496094 8.855469 8.714844 L 7.203125 9.964844 C 6.953125 10.148438 6.609375 10.117188 6.390625 9.933594 C 6.390625 9.933594 5.550781 9.152344 5.550781 9.152344 C 5.332031 8.902344 5.332031 8.496094 5.550781 8.246094 Z M 5.550781 13.238281 C 5.796875 12.988281 6.171875 12.988281 6.421875 13.207031 L 6.859375 13.644531 L 8.105469 12.707031 C 8.386719 12.488281 8.761719 12.550781 8.980469 12.832031 C 9.199219 13.113281 9.136719 13.488281 8.855469 13.707031 L 7.203125 14.953125 C 6.953125 15.140625 6.609375 15.109375 6.390625 14.921875 C 6.390625 14.921875 5.550781 14.144531 5.550781 14.144531 C 5.332031 13.894531 5.332031 13.488281 5.550781 13.238281 Z M 5.550781 18.230469 C 5.796875 17.980469 6.171875 17.980469 6.421875 18.199219 L 6.859375 18.636719 L 8.105469 17.699219 C 8.386719 17.480469 8.761719 17.542969 8.980469 17.824219 C 9.199219 18.105469 9.136719 18.480469 8.855469 18.699219 L 7.203125 19.945312 C 6.953125 20.132812 6.609375 20.101562 6.390625 19.914062 C 6.390625 19.914062 5.550781 19.132812 5.550781 19.132812 C 5.332031 18.882812 5.332031 18.480469 5.550781 18.230469 Z M 5.550781 18.230469 " fill-opacity="1" fill-rule="nonzero"/></g></g></g></g></g></svg>